<svg height="960" viewBox="0 0 960 960" width="960" xmlns="http://www.w3.org/2000/svg"><g fill="none" fill-rule="evenodd" stroke="#000" stroke-linecap="round" stroke-linejoin="round"><path d="m642.174508 228c32.265411 0 63.632358 3.317884 93.255229 9.848322 18.894159 4.160521 36.995557 9.663995 53.775685 16.37876 16.93868 6.76743 32.661791 14.798815 46.772954 23.883497 29.305766 18.880339 51.370973 41.921199 65.561412 68.516935 9.248889 17.300395 14.877499 35.627753 16.753702 54.455427l.126801 1.288859c.036965-.122233.070968-.24616.101975-.3718l7.011416 76.5384c2.989773 37.004103-8.440157 75.695003-33.046258 111.855707-18.626553 27.410446-43.99994 52.527903-75.405791 74.640754-32.464177 22.87718-69.981865 41.563725-111.574112 55.53251-41.40704 13.916073-84.269279 22.218276-127.422558 24.669402-41.698079 2.372058-81.78221-.790686-119.167608-9.409163-37.411855-8.618477-70.299364-22.165563-97.762946-40.219559-28.389619-18.686544-49.767822-41.484656-63.473156-67.709074-4.709554-9.01382-8.466615-18.422982-11.165348-27.963926l-22.515905-76.222126c.39297.599661.849859 1.154954 1.367432 1.668165l-.785434-2.695072c-5.813588-22.224556-6.104267-45.476075-.819187-69.096248 5.152952-23.067193 15.485283-46.002723 30.732737-68.174614 18.999861-27.675364 44.685348-53.007144 76.3694-75.337029 32.952471-23.225187 70.925768-42.105526 112.8893-56.140702 42.042808-14.061507 85.697565-22.487879 129.722278-25.094788 9.592419-.579313 19.264115-.842637 28.697982-.842637z" stroke-width="40"/><g stroke-width="20"><path d="m909.549838 403.563376c3.028295 37.291146-8.289314 76.29169-32.772305 112.741287-18.503392 27.560735-43.679298 52.833508-74.834802 75.081963-32.207708 23.01111-69.471128 41.814474-110.738056 55.884124-41.087283 13.990754-83.637386 22.353649-126.469789 24.825699-41.395245 2.393156-81.173689-.788952-118.283128-9.467428-37.135102-8.678475-69.77909-22.301052-97.03374-40.473254-28.178537-18.803364-49.376598-41.70928-63.003923-68.112884-3.849527-7.44245-7.057466-15.174183-9.546826-22.932214l-2.386707-8.362895c-5.645973-22.195859-5.928271-45.417356-.795569-69.00703 5.004385-23.037408 15.038818-45.943324 29.846665-68.086586 18.452065-27.63963 43.396999-52.938701 74.167551-75.239754 32.002399-23.195198 68.880867-42.051159 109.634524-56.068212 40.830648-14.043351 83.226771-22.458842 125.982182-25.062385 9.315855-.578565 18.708701-.841549 27.870575-.841549 31.335148 0 61.797737 3.313599 90.566535 9.835605 18.349411 4.155149 35.928917 9.651517 52.225247 16.357612 16.450312 6.758692 31.720102 14.779707 45.424417 23.852659 28.460835 18.85596 49.889868 41.86707 63.671174 68.428465 8.98223 17.278056 14.448558 35.58175 16.270667 54.385113z"/><path d="m753.839933 411.911727c1.601736 19.168347-4.384412 39.215355-17.334037 57.951129-9.786876 14.166733-23.103001 27.157411-39.581874 38.593533-17.035409 11.82814-36.744902 21.493421-58.571944 28.725484-21.732023 7.191509-44.237767 11.490193-66.892824 12.760873-21.894912 1.230127-42.93466-.405536-62.562709-4.866434-19.641622-4.460899-36.90779-11.463158-51.323411-20.80401-14.904286-9.66528-26.116435-21.439349-33.324246-35.011295-2.036104-3.825559-3.732858-7.799814-5.049539-11.787587l-1.262385-4.298684c-2.986287-11.409087-3.135601-23.34537-.420795-35.470904 2.646936-11.841658 7.954382-23.615727 15.786598-34.997777 9.759728-14.207287 22.953686-27.211482 39.228949-38.67464 16.926817-11.922766 36.432699-21.615082 57.988261-28.820109 21.596283-7.218545 44.020582-11.544265 66.634917-12.882535 4.927374-.297393 9.895469-.432572 14.741398-.432572 16.573892 0 32.686266 1.703253 47.902755 5.055686 9.705432 2.135824 19.003643 4.96106 27.623153 8.408118 8.700954 3.474093 16.777502 7.597045 24.026035 12.260712 15.0536 9.692316 26.387916 21.520457 33.67717 35.17351 4.750911 8.881244 7.64218 18.289685 8.605936 27.954965z"/><path d="m663.636866 424.894922c.746822 8.887142-2.044266 18.181665-8.082128 26.868251-4.563206 6.568212-10.771951 12.591163-18.455352 17.893365-7.94289 5.483956-17.132592 9.965131-27.309618 13.318179-10.132723 3.334245-20.626198 5.327271-31.189292 5.916405-10.208671.570331-20.018615-.188022-29.170343-2.256256-9.158057-2.068235-17.20854-5.314737-23.929934-9.645496-6.949237-4.481175-12.176988-9.940062-15.537685-16.232509-.949349-1.773668-1.740474-3.616278-2.354387-5.465154l-.588596-1.993026c-1.392379-5.289668-1.461998-10.823763-.196199-16.445601 1.234154-5.490224 3.708792-10.94911 7.360622-16.226243 4.550548-6.587014 10.702333-12.616232 18.290799-17.930969 7.892258-5.527828 16.987025-10.021538 27.037471-13.36205 10.069432-3.34678 20.524934-5.352341 31.069041-5.972812 2.297426-.137882 4.613838-.200556 6.87329-.200556 7.727704 0 15.240222.78969 22.335027 2.343999 4.525232.990246 8.860594 2.300128 12.879507 3.89831 4.056886 1.610716 7.822639 3.522266 11.202323 5.684512 7.018856 4.49371 12.303568 9.977666 15.702239 16.307718 2.215148 4.117668 3.563224 8.479763 4.012583 12.960939z"/><path d="m609.789768 482.974717-152.216634 41.297585"/><path d="m632.669089 389.402759 111.741263 61.739374"/><path d="m505.922123 441.958918 10.575222-100.617113"/></g><path d="m503.802223 144.255444 256.322911-8.950993 2.717912 77.830843-256.32291 8.950994z" fill="#000" stroke-width="30"/><path d="m763.191621 152.547913 121.307656-4.236157c-2.644951 3.153699.751755 4.565752 10.190119 4.236157 9.438363-.329595 17.718014-2.346891 24.838954-6.051887l17.723657 21.67881-16.129148 23.981952c-7.851821-2.839341-16.662976-4.104782-26.433463-3.796323-9.770488.30846-13.500667 2.148386-11.190536 5.519778l-118.71273 4.328431z" stroke-width="20"/><path d="m488.226566 767.420963 273.310278-9.532077 2.898038 82.883489-273.310278 9.532076z" fill="#000" stroke-width="30"/><path d="m764.434882 775.873135 133.375262-4.752121 11.642969 4.752121 21.583911-6.5621 18.440076 25.338876-16.745541 24.171389-23.278446-2.127168-11.642969 4.518968-131.680726 4.1703z" stroke-width="20"/><path d="m511.016406 185.163975c-274.270324 40.505196-436.0036332 144.569224-485.1999285 312.192085-35.9677882 261.934475 329.3732365 320.77912 468.1756845 312.192084" stroke-width="40"/><path d="m894.275169 783.405135v26.36995" stroke-width="30"/><path d="m847.548198 783.405135v26.36995" stroke-width="30"/><path d="m884.499277 154.02283.430498 30.519913" stroke-width="30"/><path d="m839.241181 157.19037v24.313221" stroke-width="30"/></g></svg>