<svg height="960" viewBox="0 0 960 960" width="960" xmlns="http://www.w3.org/2000/svg"><path d="m193.863361 126.310959 547.604504 45.040278c54.477555 4.48076 105.799082 51.471547 119.132584 106.99494l92.12506 383.627362c14.923593 62.144859-22.824215 120.558734-85.031043 125.675224l-547.604503 45.040278c-14.438394 1.187553-28.885955-1.043221-42.654482-6.293885l-.29169-.113156-.414539-.146242-.777392-.294214-173.861069-67.873544-1.142007-.398456c-37.0329428-13.185307-68.576075-48.174458-85.0009307-92.25601l-.5031543-1.366232c-13.29292798-36.522019-14.76216163-75.115517-3.7732286-106.823647l.1943206-.552655 90.249-359.237.069977-.304525c10.454829-44.710443 46.167291-74.461805 91.678593-70.718516zm-52.631768 120.62822 92.146817 465.288965c7.14128 36.059402 30.36703 65.535615 57.184531 76.367562l.07307.013352c8.49962 3.407126 17.35705 4.939877 26.175038 4.214601l547.604504-45.040279c36.708428-3.019255 58.832598-37.255906 49.415718-76.469699l-92.12506-383.627362c-6.872616-28.61896-28.645743-54.586918-54.179005-67.703572-9.39202-4.793946-19.287793-7.848443-29.134397-8.658058l-547.733828-45.03618c-36.717097-3.018981-58.846493 33.089554-49.427388 80.65067zm51.7943-67.954881 547.733828 45.03618c15.466631 1.271709 31.040394 9.088128 44.448213 21.36052 13.687417 12.528312 23.708841 28.574201 27.746389 45.38187l92.146817 383.592459c3.68843 15.354345 1.761823 30.331151-5.724424 41.912158-7.067731 10.933576-18.718049 17.757633-32.360583 18.879359l-547.733828 45.036181c-14.811398 1.217834-29.390537-5.54315-42.113497-17.826515-13.822215-13.344638-23.816599-32.066726-27.883664-52.603089l-92.146817-465.288964c-3.883029-19.607085-2.108386-37.293773 5.777873-50.161782 3.281243-5.354005 7.547216-9.560581 12.793531-12.227495 5.164325-2.625234 11.03999-3.606926 17.316162-3.090882zm-67.751518 90.330593-75.1071941 298.965865c-8.3352397 22.165833-8.0049211 52.120265 2.8652229 81.98574 12.9939385 35.700553 37.6067301 61.817664 62.7367232 70.101489l119.247137 46.554023c-10.073211-14.694396-17.542924-32.055424-21.25682-50.808483zm59.498387-69.411041c-1.72965.879251-3.35053 2.477563-4.804191 4.849502-4.923232 8.033237-6.198431 20.742303-3.211278 35.825723l92.146816 465.288965c3.285933 16.592091 11.315901 31.634313 22.156078 42.099948 8.942233 8.633267 18.282594 12.9648 26.583194 12.282302l547.733828-45.036181c7.524861-.618715 13.545014-4.144958 17.203246-9.804138 4.34154-6.713535 5.546171-16.091514 3.073913-26.383129l-92.146817-383.592459c-3.061111-12.742915-10.938224-25.355422-21.803278-35.300381-10.362919-9.485346-21.963374-15.307575-32.583476-16.180789l-547.733828-45.03618c-2.757946-.226766-4.946025.138813-6.614207.986817zm58.836939 58.800996 515.803912 31.390992c4.361745.265449 8.046008 3.332264 9.098277 7.573492l86.242774 347.606038c1.507544 6.076238-2.875432 12.027828-9.125338 12.391184l-521.798682 30.33629c-4.992315.290243-9.431537-3.151978-10.393598-8.059308l-80.248004-409.333321c-1.259059-6.422276 3.888216-12.302921 10.420659-11.905367zm11.69354 20.748533 76.081 388.076 501.057-29.131-81.573-328.786z"/></svg>