<svg height="960" viewBox="0 0 960 960" width="960" xmlns="http://www.w3.org/2000/svg"><path d="m257.031125 92.0127182c289.257866 3.5744061 449.935902 5.3654203 481.130006 5.3654203 65.372677 0 113.985683 45.3642245 130.335913 112.5271845 4.776526 19.620865 22.588125 93.763186 40.720546 169.364218l2.267304 9.453888c18.892794 78.781739 37.558877 156.747248 41.627576 173.920733 3.346122 14.123571 4.239239 28.379247 3.294624 43.969775-.103368 1.70605-.214886 3.325578-.341133 4.919487l-.064382.795101c-.02189.264511-.044219.528591-.067019.792524l-.069839.791637c-.677445 7.521702-1.761407 15.152448-3.956845 29.419344-.516214 3.354583-.853426 5.574402-1.162655 7.676993l-.09208.628277c-.030514.208932-.060899.41771-.091307.62735-1.448314 9.985151-3.270484 21.971923-5.182537 34.158014l-.371121 2.360603c-.457051 2.901476-.918147 5.807645-1.379472 8.69429l-.251632 1.572452-.225616 1.406331c-3.571137 22.233362-7.07704 42.794057-8.744206 50.426197-3.722663 17.042028-13.396494 30.948781-27.821488 40.245327-10.629008 6.850128-22.551979 10.630955-37.282013 13.011687-9.038265 1.460803-93.777571 11.510596-260.826239 31.078776-.41676.048819-.65987.077297-.874039.102384l-.252373.029563c-.21417.025087-.457284.053564-.87405.102382-36.839446 4.315173-153.988691 18.019619-168.665451 19.738152-54.554183 6.387868-82.882031 9.724134-90.611395 10.680679-35.712576 4.419597-73.978717 1.83188-120.643398-5.981578-14.792425-2.476819-43.996723-8.107281-85.164241-16.318195-1.205968-.240532-2.42111-.483065-3.645515-.727614-.966536-.193046-1.984723-.396635-3.049272-.609695l-1.299374-.260148c-8.806336-1.763707-20.444384-4.105991-32.205542-6.476861l-3.4558379-.696749c-.702373-.141629-1.4042391-.283169-2.105021-.424501l-1.3999472-.282352-1.3960301-.281592c-20.522667-4.139808-39.4376042-7.964262-42.0026695-8.479919l-.1401271-.028141c-.0590563-.011842-.1014985-.020322-.1268624-.025346-35.089146-6.949386-52.7701291-36.690572-44.58025421-70.197525l.2110693-.833817 1.02874239-6.80839c45.14804982-298.515232 69.83731912-460.895915 74.22635902-488.17285l.1280173-.792807c2.1141392-13.041854 5.1112705-26.103087 9.5882825-39.620019 6.2367823-18.830007 14.6524999-36.223055 25.8796309-51.592304 30.466002-41.706073 79.51591-69.9242823 130.329672-75.0494933.56784-.0572738 1.072677-.1027991 1.564922-.1382925l.36761-.0247658c.855925-.0535232 1.711884-.0815433 2.838047-.0815433h.763843c1.075175 0 2.391403.02101 4.118819.0457291zm-42.545463 49.0628028-.229429.09035c-25.524119 10.093211-48.676375 27.469797-64.908129 49.690064-18.810518 25.750437-25.650088 57.774603-28.283225 74.018088-4.019197 24.793916-29.2449175 190.70295-75.6771604 497.727102-4.0230347 13.119985.2935274 20.93325 12.9496863 23.439795 18.9842382 3.759818 139.8757271 28.546335 174.8249781 34.39818 34.949251 5.851846 73.713719 10.117541 109.125111 5.735217 6.995518-.865728 30.826144-3.674133 64.709402-7.646841l-37.969702 3.967725v-59.069l122.884712-11.190996-.007145 56.352724c149.968231-17.543549 358.812123-41.963369 371.016837-43.935948 18.429266-2.978617 29.422726-8.643442 32.407126-22.305763 1.582366-7.243938 4.834367-26.49691 8.098025-46.8306l.220021-1.372324c.11-.686856.219971-1.374661.32985-2.062997l.552235-3.468766c.098409-.619785.196657-1.239432.294698-1.858634l.293453-1.85597c2.293117-14.523221 4.446147-28.632881 5.859074-38.374063.194258-1.339273.392598-2.675058.593262-4.00752l.302521-1.996222c.607648-3.987546 1.228303-7.945945 1.814487-11.879714l.29-1.964853c.373479-2.557063.728975-5.103997 1.053367-7.642048-1.934019 3.908985-4.339172 7.5961-7.179596 10.97871-9.282508 11.054372-22.572005 18.092577-37.24385 19.370871l-523.419822 45.603298c-16.815846 1.465091-33.321193-3.350411-46.602281-13.294492s-22.54885-24.425935-25.87751-40.974023l-86.771836-431.377271c-.931904-4.632868-1.378097-9.352107-1.335751-14.100372.195471-18.238612 7.623624-35.303993 20.394507-47.813219 2.352855-2.304649 4.857365-4.425374 7.492084-6.350488zm40.591547 6.953307h-1.35929c-12.719682.211584-24.255762 5.384969-32.72933 13.684926-8.760807 8.581311-14.247954 20.504757-14.389686 33.736347-.029776 3.338802.284733 6.672071.943182 9.945484l86.771836 431.377271c2.40581 11.960237 9.113077 22.061691 18.257333 28.90836 9.144255 6.84667 20.725498 10.438554 32.879258 9.379649l523.419822-45.603298c9.587172-.835288 17.928159-5.477469 23.663531-12.307621 5.735372-6.830151 8.865129-15.848273 8.02984-25.435445-.140074-1.60773-.391656-3.203788-.752927-4.776651l-85.109455-370.539984c-4.225346-18.395837-14.47862-34.145647-28.39402-45.345335-13.9154-11.199689-31.492926-17.849256-50.366776-18.044605zm529.817442 66.412071 78.020643 341.530974c2.719441 11.9042-5.770398 23.445347-17.944383 24.39372l-489.345316 38.120808c-10.063907.783995-19.13452-6.054398-21.15044-15.945451l-76.565844-375.668001c-2.513154-12.330712 6.85002-23.89072 19.433812-23.99347l487.890517-3.984456c9.390473-.076001 17.569622 6.390935 19.661011 15.545876zm-19.49771 4.454132-487.890517 3.983781 76.565845 375.668001 489.345315-38.120808z"/></svg>