<svg height="960" viewBox="0 0 960 960" width="960" xmlns="http://www.w3.org/2000/svg"><g fill="none" fill-rule="evenodd"><g stroke="#000" stroke-linecap="round" stroke-linejoin="round"><path d="m674.052125 185 71.64384 44.867361 63.327698-34.867361 128.976337 82.474437v29.380323l-60.216317 33.077245-.783718.276356.000035 87.071524c-164.661486 87.064541-262.855442 142.183067-294.581868 165.355579l-.941061.692419c-46.03583 34.132028-85.219602 154.947549-233.174031 176.086791-147.954429 21.139243-216.43367-35.924896-252.2270559-67.076915-23.8622573-20.768013-41.5515737-40.339938-53.0679491-58.715776l-8.9978845-102.512371c-.0732942-12.231221.9709038-21.762563 3.1325942-28.594025 17.5564585-55.482639 54.0160973-80.744417 94.7266253-107.018853 64.723684-41.772445 195.187264-50.257041 222.706029-62.480833 18.345844-8.149194 124.838086-60.821161 319.476726-158.015901z" stroke-width="40"/><path d="m21.9873426 543.454026 9.2558818 105.123042c11.8465857 18.843813 30.0431097 38.914174 54.589572 60.211084 36.8196936 31.945364 107.2624466 90.462749 259.4591896 68.785156 152.196742-21.677593 192.504034-145.56991 239.859854-180.571174 31.570546-23.334176 132.90271-80.093085 303.99649-170.276726v-93.928193l-20.09252-36.731784-188.674502-117.790023c-200.219534 99.669988-309.765239 153.683346-328.637115 162.040075-28.307814 12.535094-162.51219 21.235766-229.091703 64.072026-41.8778254 26.943564-79.3828753 52.848681-97.4427319 109.74429-2.2236728 7.005439-3.2978113 16.779514-3.2224155 29.322227z" stroke-width="30"/><path d="m34.9197582 561.337885c11.5328251 18.406571 37.5070453 36.674109 61.4033869 57.476856 35.8445129 31.20412 104.4215669 88.363698 252.5873309 67.189101 148.165765-21.174598 187.405506-142.192181 233.507092-176.381294 30.73439-22.792741 129.38274-78.234645 295.945047-166.325712" stroke-width="20"/><path d="m126.59833 592.444921 34.192516-28.337989" stroke-width="20"/></g><path d="m131.938175 690.023903c-.136886 2.064047-.181282 3.945203-.318168 5.505368-.09249 2.61645-.225677 4.635707-.273772 5.001487-.092491.597193-.318168 1.377276-1.409557 2.340248-.817618.686772-2.227175 1.515376-4.683727 2.567928-2.093988.962973-3.684827 1.515376-5.549438 1.283964-1.820216-.320991-3.592337-1.332486-6.23017-3.672734-4.820612-4.221404-36.385818-31.569087-37.7953754-32.901572-.3625633-.22768-3.3185642-2.523138-6.2782647-8.71901-2.9560009-6.333973-6.7777142-13.627186-6.7777142-13.627186-.1812817-.36578-1.1838802-2.844129-1.4539529-12.115542-.1812816-6.14735-.3181678-7.983717-.3625633-8.580909v-.276202c0-.36578 0-.459091.0443955-.686771v-.044789c.1368862-.459092.3625633-.918184.6807311-1.422065.2737723-.36578.6363356-.780083 1.0913896-1.101074l.0443955-.044789c1.0913896-.824872 2.3640608-1.836367 5.8232108.918183l.0924906.04479 55.3537994 47.629831c3.547941 3.02702 5.593834 6.195872 6.777714 9.222891 1.135785 3.034485 1.409557 6.016715 1.224576 8.677953z"/><path d="m409.141497 311.794382-197.514735 109.088172c-19.014987 12.404933-31.52823 22.125012-37.53973 29.160235-20.164175 23.598016-23.937325 47.11798-14.590638 57.836289 20.289671 23.267171 63.124147 55.570176 76.642644 64.876094 9.596061 7.19608 44.238783 7.19608 64.932231 5.259635 43.614253-4.08132 81.594606-21.176988 108.070228-37.242834 39.037386-23.688531 188.613473-106.051672 448.728261-247.089422" stroke="#000" stroke-linecap="round" stroke-linejoin="round" stroke-width="20"/><path d="m878.040846 308.485504 59.643198-30.981525" stroke="#000" stroke-linecap="round" stroke-linejoin="round" stroke-width="20"/></g></svg>