<svg height="960" viewBox="0 0 960 960" width="960" xmlns="http://www.w3.org/2000/svg"><path d="m476.507565 9.22373952c71.40012 4.99278278 138.179645 15.24529758 188.032771 28.66391758 25.900646 6.9714971 47.034282 14.7235642 62.761085 23.3741792 9.885564 5.4376094 18.079861 11.4258924 24.601386 18.5932212 9.180752 10.0898899 14.912812 22.3974585 14.951357 36.3891945l-.001164.389748 49.793 489.691.035862.138785c.15069.608065.279225 1.191398.396322 1.774183l.085845.437363c.137179.71502.245088 1.369122.340731 2.021591.196391 1.339768.340984 2.670719.496337 4.361588l.056508.62718c.210419 2.379233.456618 5.636866.749216 9.87474.611715 8.859837 1.44199 22.255421 2.495073 40.24312 1.983609 33.882017-.144412 67.984328-7.344305 100.72924-8.81653 40.09733-24.907589 76.635225-49.302703 108.04481-30.626649 39.432913-50.1968 60.767325-67.55874 69.709916l-.188146.094484-.345082.187855c-.441969.233367-.888337.458711-1.338889.675904l-.678942.319663c-6.528993 3.001275-13.579952 4.443004-19.281925 4.719096-50.74157 2.456924-117.785598 3.690728-201.261924 3.715162h-4.879368c-77.608746-.021133-138.440426-1.088411-182.653032-3.21715-5.268754-.253679-12.220952-1.732016-17.701393-3.846927-1.233172-.475883-2.428359-.990895-3.605892-1.544953l-.233553-.11265-.524731-.246134c-17.540941-8.371682-37.138374-29.441165-68.097038-69.21808l-.961117-1.236186c-24.395114-31.409585-40.486173-67.94748-49.302703-108.04481-7.199893-32.744912-9.327914-66.847223-7.344305-100.72924 1.053083-17.987699 1.883358-31.383283 2.495073-40.24312.319198-4.623135.583177-8.079702.805724-10.50192.138092-1.502995.267682-2.72161.432706-3.914819l.020391-.142691 30.700612-532.3041977c.307513-5.3317788 1.645179-10.3573227 3.807723-14.8956349l.010665-.0201674.128914-.334349c3.53752-8.9712683 9.526943-16.5786446 17.113347-22.8138641l.486399-.3961292c7.461306-6.0213423 16.382998-10.7053567 26.875102-14.6350425 16.808053-6.2952454 38.799041-10.9771569 65.344907-14.23655 51.166663-6.28241989 118.472821-7.11417613 189.587896-2.14132568zm237.991184 864.00613948-1.17979.076926c-55.365535 3.600989-136.357717 5.395469-243.073259 5.395469-103.073554 0-177.801683-1.672097-224.385532-5.039955 17.030375 20.450268 29.039618 32.246714 36.028988 35.389358.463458.22721.889878.415945 1.279258.566208 1.794327.692434 4.550744 1.178508 5.224106 1.210929 43.469974 2.092983 103.718957 3.149939 180.746948 3.170869l4.855939.000317c82.882463-.02458 149.326865-1.247349 199.333207-3.668674.380124-.018406 2.805858-.326639 4.509721-1.109878.085435-.039274.164008-.090355.234657-.15281 7.03153-3.137419 19.173449-15.083672 36.425757-35.838759zm-528.519057-322.26085-3.749778 65.028719c-.308921-.957372-1.508982 16.423823-3.600181 52.143583-3.1368 53.579641 4.313243 125.257657 48.306309 181.900311.539268.694327 1.075031 1.382613 1.607291 2.06486 42.854175 4.385132 123.525067 6.595772 241.702367 6.595772 119.83657 0 207.004945-2.270439 261.366361-6.794061.480123-.616625.964579-1.239132 1.451897-1.866571 43.993066-56.642654 51.443109-128.32067 48.306309-181.900311-2.091199-35.71976-3.29126-53.100955-3.600181-52.143583h-.346374l-6.604395-64.947596-1.471166.168165c-57.768316 6.486936-153.27697 9.71406-286.735611 9.71406-134.773274 0-233.438299-3.291966-296.15342-9.901286-.161134-.016981-.320969-.037701-.479428-.062062zm25.288923-438.481109-24.142138 418.604212c.470174-.01732.947275-.001637 1.428762.049105 61.857743 6.518964 159.929625 9.79114 294.057301 9.79114 134.089537 0 229.556454-3.271265 286.184705-9.780109l-39.219483-385.69158c-4.80689 3.257863-10.532506 6.083561-17.17993 8.610438-15.043253 5.718373-35.591867 10.139985-60.756758 13.25877-49.8517 6.178321-116.144418 7.021079-186.337105 2.112728-70.192687-4.90835-135.72296-14.96907-184.229651-28.02528-24.485936-6.590709-44.219204-13.829104-58.320212-21.585442-4.280604-2.35457-8.110776-4.788247-11.485491-7.343982zm216.623702-65.766768-.148-.005-.840567-.0283336.718567.0243336.122.004.036.001.112.004.136597.0052516-.248597-.0092516-.158-.005-1.405-.047-2.197479-.0715868c-2.399777-.0756414-4.788089-.1439429-7.164426-.2049677-1.131395-.0290553-2.261061-.0564836-3.387954-.0822664-2.684683-.0614244-5.353623-.1135088-8.006075-.1563456l-1.277066-.0198335h-.001l-.088-.002h-.059l-.83-.012-.512238-.0075897.467238.0065897.045.001.628.009.202.003h.034l-.236-.003-.673-.01-.505-.007-2.43039-.0309875.11639.0009875 2.311.029.003.001.037762.0004103-.040762-.0014103-.43895-.0051031-1.87205-.0238969-.429382-.0045931c-3.699815-.042119-7.365944-.0660505-10.996314-.0720514l-2.221252-.0014347-.003052-.0009208-1.22457.0020566-.141362.0002194c-.148027.0002394-.295991.0005088-.443895.0008083l.386827-.0010843.150092.0001296 1.272908-.0021296-.922671.0016494c-.116783.0001414-.233529.0003015-.350237.0004802l-.150092-.0001296-.423801.0011598-.055199-.0001598-.967.003-2.559.011.96-.005-.576624.002467-.435376.002533h-.033l-1.932.012 1.9088-.0119524-1.82378.0115517-.11902.0004007h-.045l-.10303.0015533.10203-.0015533-.381.003-1.34477.0118862c-.54037.0048533-1.079861.0101153-1.618467.015785l1.692014-.0164429 1.271223-.0112283.27897-.0014467-1.550193.012675-1.905777.0187717-1.998178.0233092-1.161822.0156908-2.368898.03508-1.893662.0322848-1.20544.0226352 1.361683-.0254338-1.37567.0254783-.317013.0059555-.137.003-.108.002.071-.001.037-.001h.004l-.041.001-.317.006-.888.018-2.132.047-.221.005-.083.002.04-.001.043-.001.033-.001.188-.004.209-.005.619-.014-.27376.0063416-.34524.0076584-.397.009-.076.002-.18.004-.081571.0022611.045571-.0012611.036-.001.14-.003-.176.004-.151.004-1.04.025-1.136.029-.461526.0119719c-.090606.0023989-.181182.0048098-.27173.0072329l-.871744.0237952-.402.011-.106.003-1.395073.0405127c-.794866.0235998-1.587425.0481403-2.377649.0736184l-2.363643.0792437-.084635.0026252-1.660123.0598005-.039877.0011995-.028.001h-.002l-.053.002-1.614015.0613046 1.516705-.0573865-1.815292.0689878-.844398.0330941-.579748.0236258c-.572925.0232809-1.144527.0470685-1.714794.0713614l1.332336-.0557368-1.484224.0622204-.48757.0205292-1.180916.0524516-1.300084.0595484-1.416557.0662556-.758265.0366773-1.027178.0500671-.275266.0145443-.188734.0094557-.164583.0084252-1.640305.0850074-1.336112.0715674.91-.049-1.262.068-.052.003-1.620942.091017-1.610058.092983-.436.026-1.074.065-.232.014.111-.007.121-.007.320027-.0193002-.441027.0263002-.606.038-.488583.0303208-.250417.0156792.257-.016-.32.02-.974.062.489301-.0312784-.729867.04683-.080434.0044484-.12.008-.329.022-.298736.0195499-.387264.0254501.455-.03.231-.015.202-.013-.433.028-1.617715.1080955-1.598285.1099045-.043.003.039-.003-.039364.0033411-.267636.0186589-1.113242.0794885-.020758.0005115-.055.004h.005l-.180741.0136514-1.615933.1188363-.663326.0495123-.501665.0384778-.295335.0225222-.146278.0113451.111278-.0083451-.351.027-.855823.0665911-.155177.0114089.014-.001-1.649.133-.211.017.091-.008.12-.009.3-.025-.36869.0302879-.05131.0037121-.108.009.017-.001-.076672.0061449c-.973431.079539-1.941455.1607771-2.904001.2437054l1.277135-.108769-1.424462.1209187-.011.001-.036.003-.094339.0087853-.473661.0412147.568-.05.014-.001-.582.051-.872929.0768294-.20957.0186287-.022501.0015419-1.320583.119509c-.446471.0407215-.891714.081814-1.335724.1232764l1.263811-.1167132-1.281504.1179278-.141.013.017-.002.124-.011.017693-.0012146-.141693.0122146-.062.006-.483.046-.926407.088569c-.535869.0514731-1.069902.1034909-1.602086.1560517l1.470853-.1434316c-.994986.0957925-1.983631.1934644-2.965852.2930052l1.474492-.1481943-1.656669.1666855-.877331.0903145-.393927.0403401-.152073.0156599-.241418.0253608c-.937899.0981025-1.869792.1979315-2.795603.2994774-.814995.0893913-1.625278.1801132-2.430795.2721592l1.143908-.1294645-1.485092.1684671-.243.028.223585-.0256721.019415-.0023279.341184-.0390026-1.413545.1634563-.363639.0425463-.173.02-.866991.1036396.466991-.0556396.4-.048.096135-.0108116-.496135.0588116-.673.08-1.505.183-.193.024.152908-.0184943-1.318748.164464 1.10184-.1379697-1.230547.1542155-1.285453.1637845-1.056619.1380035.905741-.1181071c-.939841.1216319-1.872434.2451811-2.797689.370636l.309567-.0415324-.795.107-.267.037-.112.015-.334.047-1.004.14.79-.111-1.088714.1528321-1.161286.1651679-.278016.040767-.224984.032233-.695.102-.381217.0562612-.769783.1147388-.51471.0774344-.086444.0130826-1.234846.188483-.678.106-.688.108-.651.104-.599162.0961607-.353838.0578393-.948997.1551376-.739003.1228624-.559278.094155-.978722.166845-.227212.0391342-1.217788.2118658.974-.17-.975087.1707496c-.375227.0661505-.748866.1326712-1.120909.1995613l1.111805-.1979562-1.210809.2156453-.077918.0141694-.995082.1808306-1.160107.2153612-.295074.055435-1.027698.1953758 1.142879-.217172-1.183.225-.77.149-.257.05-.227.044.207-.04-.205924.040195-.373076.073805-.851.169.077789-.0152772-.098821.01984-.074968.0144372-.971083.1978077-.073917.0141923-.037.008-.021.004.014-.002.007-.002h.001l-.008.002-.351.072-.735.153-.095.02-.754.16.291-.062.463-.098.093-.02-.094061.0203935-.461939.0976065-.427.09-.106093.0232366-.008907.0017634-.031.006.008-.001-.090798.0195137-.879202.1894863.487-.105-.6584.1430356-.5466.1199644-.576694.128444-.415306.093556-.558153.1261577-.621847.1428423-.596787.1382267-.96052.2264158-.838693.2013575.525-.127-.806222.1952653-.025369.0061795-.276409.0675552-.536.132-.232.057-1.047543.2644181-.258457.0655819-.773276.1999723.716276-.1849723-.720675.1861172-.981325.2578828.977-.258-.977918.2585223-.032241.0085764-.309841.0829013-.086.023-.566643.1529634-.348357.0950366-.673488.1859695-.557512.1560305.56-.157-.786.221.102-.029-.199195.0564715-.105805.0295285-.443.128-.441.127-.073532.0211292-.837468.2458708-.788.237-.159723.0480474-.096139.0292528-.223138.0686998-.587545.1807721-.267455.0832279-.626592.1978807.598592-.1888807-.724852.2291009-.669148.2148991-.333.109-.104.034-.609.202.449-.149-.450549.1493773-.121756.0407206-.7258.2455688.524105-.1776667-.630871.2142067-.497129.1717933-.273972.0953773c-.290245.1016632-.57811.2037524-.863583.3062659l-.031294.0112429-.299151.1081139-.492498.1797801-.040413.0148797-.308089.1143402-.511912.1915522-.738088.2814478-.348.136.280082-.109115-.525082.205115-.213.083-.029.012-.74.298-.764.315-.011688.0052683-.009312.0037317-.727995.3085387-.228005.0984613-.05.022-.393.171-.052468.0231248-.018289.0080615-.688218.3074428-.268025.1223709-.316.145-.108642.050413-.046051.0214375-.368307.1731495-.289034.1372504-.233966.1127496-.239.116-.184703.0903984-.225297.1116016-.478.24.06992-.0355772-.24592.1255772-.395931.2039481-.051069.0260519-.247.131-.382.203-.246.134-.011.006-.330873.1810437-.305127.1709563-.316885.1793216-.164115.0946784-.41753.2435266-.022419.0132536-.543986.3268043-.041839.0255622-.076226.0468533-.455.282-.003.002-.029049.0195742-.154951.0994258-.329143.2116207-.093857.0613793-.337.224-.109.073-.043.029.041-.028-.0414.0286145-.2416.1653855-.21503.1493703-.19997.1416297-.30177.2164321-.030769.0224005-.269461.1991674.27-.2-.449942.3342296-.301058.2317704-.189.146-.008936.0070229-.411195.3298459-.034869.0271312-.139.117-.297.249-.005.004-.024.021-.041.036-.282.245-.03727.0338231c-.140598.1251057-.278473.2505927-.413613.3764595l.121883-.1122826-.127794.1177893c-.129059.1202848-.25562.2409164-.379674.3618935l-.373266.3728031-.166266.1735141-.14.147-.048959.0521015-.200041.2198985-.142615.1584217-.117385.1355783-.025.029-.066.077-.10998.1290856-.26202.3209144-.105.134-.217.284-.058.078-.05455.0743804c-.062773.0862645-.124326.1726885-.184657.2592718l.186207-.2596522-.190898.2663882-.172102.2546118.171-.255-.172339.2550954c-.116282.1746163-.227616.3498734-.333972.5257682l.01237-.0204185-.087059.1475549.074689-.1271364-.141689.2411364-.029.05-.043897.0766214-.012384.0220685-.111719.2063101-.086556.1615536-.012419.024031-.132339.2643657-.019686.0410497-.011.021h.001l-.012.023-.033.071-.152.34.053138-.1228153-.054138.1238153-.023.054-.03905.0927935c-.037453.0903612-.073628.1808805-.108522.2715575l-.101619.2747081-.022809.0649409v.001l-.041.121-.108.338-.007908.0273491-.007092.0246509-.002.008-.021708.0734534-.063292.2325466-.009799.0377838-.004493.0176053-.018708.0756109-.043774.184003-.017226.078997-.001.005-.023.109-.042.216.024085-.1308417-.025131.131306-.014954.0855357-.003.015-.017.103-.011.07-.029.199.012-.087-.012905.0877101-.004095.0342899-.001.007-.033941.2854258c-.011231.1091136-.020679.2184353-.028338.3279644-1.938024 27.7150408 111.381419 58.2164488 253.10606 68.1268008 141.724642 9.910353 258.186244-4.523199 260.124268-32.23824 1.938025-27.7150412-111.381419-58.2164491-253.10606-68.1268015-3.184262-.2226653-6.355771-.4330415-9.513515-.6312543l-3.153117-.1941628c-2.286847-.13809-4.566253-.2697848-6.837831-.3951328-1.572221-.0867565-3.140482-.1704616-4.704866-.2511431l-.845832-.0433477-.792828-.0401088-2.062615-.1021544c-1.818776-.0886089-3.632131-.1731153-5.43986-.2535445l-2.544525-.1103011-1.612878-.0679055 1.461653.0611091c-1.077844-.0456813-2.153639-.0899085-3.227341-.1326871l1.593566.0644835-1.671-.068-2.053-.08-.66-.025-.450045-.0164369.121045.0044369.329.012.433645.0168131-.762645-.0288131-.279-.011-.195-.007-.242-.009-.552969-.019702-.588031-.021298 1.069.039.072.002.072.003-.144-.005-2.204-.079.205.007-.425-.015z"/></svg>