<svg height="960" viewBox="0 0 960 960" width="960" xmlns="http://www.w3.org/2000/svg"><g fill="none" fill-rule="evenodd"><path d="m269.600257 65.7095942c68.904425-43.9231157 97.552236-43.0221702 188.9521-37.6424573 7.369279.433749 15.174445.8931896 23.477457 1.3528697 1.313198.0727027 2.634004.1454531 3.96203.2186015 65.679901 3.6176847 147.414695 9.3495579 204.752896 52.1900506 41.12516 30.7268473 71.163622 79.8242663 74.100782 161.2943173 6.108372 169.432158 6.305081 317.845367 6.422294 407.197913.009284 7.077377.018081 13.783415.029307 20.101293.08856 53.074686-2.749323 121.54727-23.415523 171.436057-16.736756 40.402998-44.526789 68.935516-87.669531 74.79721-88.520594 12.027065-219.477506 23.833132-290.353703 20.113641-3.478817-.182564-6.959678-.346755-10.435424-.510797-41.296137-1.949023-81.212349-5.298424-111.742416-30.313187-22.859691-18.730054-41.445302-49.590948-49.861652-103.574917-.393743-2.525535-6.391245-70.112883-9.215396-137.699986-2.160666-51.708693-2.409133-103.434021-2.417658-123.823561l.000153-2.560346c.000069-.125658.000146-.249629.000231-.371899l.0006-.713129c.000114-.115424.000235-.229124.000361-.34109l.000824-.650885c.002509-1.784664.006373-3.061269.00855-3.772859l.00153-230.876246c0-90.763279 7.841513-187.684453 83.402188-235.8505938z" stroke="#000" stroke-linejoin="round" stroke-width="40"/><g fill="#000"><ellipse cx="557.234533" cy="452.030987" rx="10.405948" ry="13.007435"/><ellipse cx="588.452377" cy="452.030987" rx="10.405948" ry="13.007435"/><ellipse cx="619.670222" cy="452.030987" rx="10.405948" ry="13.007435"/><ellipse cx="650.888067" cy="452.030987" rx="10.405948" ry="13.007435"/></g><path d="m309.839967 51.9095117c-29.209026 18.2615804-70 40.9216556-70 208.2879363v471.444103c0 93.617936 29.049396 176.742652 55.142183 186.267961" stroke="#000" stroke-linecap="round" stroke-linejoin="round" stroke-width="20"/></g></svg>